<svg width="14" height="12" viewBox="0 0 14 12" fill="none" xmlns="http://www.w3.org/2000/svg">
<path d="M12.1067 0.659948C10.3467 -0.540052 8.17334 0.0199478 7.00001 1.39328C5.82668 0.0199478 3.65334 -0.546719 1.89334 0.659948C0.96001 1.29995 0.373343 2.37995 0.333343 3.51995C0.24001 6.10661 2.53334 8.17995 6.03334 11.3599L6.10001 11.4199C6.60668 11.8799 7.38668 11.8799 7.89334 11.4133L7.96668 11.3466C11.4667 8.17328 13.7533 6.09995 13.6667 3.51328C13.6267 2.37995 13.04 1.29995 12.1067 0.659948ZM7.06668 10.3666L7.00001 10.4333L6.93334 10.3666C3.76001 7.49328 1.66668 5.59328 1.66668 3.66661C1.66668 2.33328 2.66668 1.33328 4.00001 1.33328C5.02668 1.33328 6.02668 1.99328 6.38001 2.90661H7.62668C7.97334 1.99328 8.97334 1.33328 10 1.33328C11.3333 1.33328 12.3333 2.33328 12.3333 3.66661C12.3333 5.59328 10.24 7.49328 7.06668 10.3666Z" fill="#9D9D9D"/>
</svg>
